<?xml version="1.0" encoding="UTF-8" standalone="no"?>
<svg width="163px" height="28px" viewBox="0 0 151 27" version="1.1" xmlns="http://www.w3.org/2000/svg" xmlns:xlink="http://www.w3.org/1999/xlink">
    <!-- Generator: sketchtool 41 (35326) - http://www.bohemiancoding.com/sketch -->
    <title>40F5A0F8-A267-48E3-9B58-C57D08DAC520</title>
    <desc>Created with sketchtool.</desc>
    <defs>
        <polygon id="path-1" points="19.1270114 27 0.0137899543 27 0.0137899543 0.0973846154 19.1270114 0.0973846154 38.2402329 0.0973846154 38.2402329 27 19.1270114 27"></polygon>
    </defs>
    <g id="Page-1" stroke="none" stroke-width="1" fill="none" fill-rule="evenodd">
        <g id="CP-001-Navigation-03D" transform="translate(-121.000000, -1727.000000)">
            <g id="CP-001-:-navigation-:-tour-select-:-03D" transform="translate(0.000000, 1705.000000)">
                <g id="hero-dropdown" transform="translate(100.000000, 1.000000)">
                    <g id="european-tour">
                        <g id="logo-:-european-tour-white" transform="translate(21.000000, 21.000000)">
                            <path d="M88.0550639,19.983 L92.320067,19.983 C92.8948782,19.983 93.922,19.9063846 93.922,18.7070769 C93.922,18.4945385 93.8930411,18.1301538 93.7112435,17.8714615 C93.5138174,17.6136923 93.2573242,17.3559231 92.1984855,17.3559231 L88.0550639,17.3559231 L88.0550639,19.983 L88.0550639,19.983 Z M85.3784338,17.2317692 C85.3784338,16.2604615 86.1621629,15.4728462 87.1299878,15.4728462 L92.7280198,15.4728462 C93.9378584,15.4728462 95.0419741,15.5792308 95.9341842,16.6114615 C96.477968,17.2488462 96.6296575,18.054 96.6296575,18.6761538 C96.6296575,19.4967692 96.3575358,20.4687692 95.6016164,21.0454615 C95.0261157,21.486 94.2855951,21.6376154 93.8620137,21.7128462 L97.0980563,26.1923077 L93.9530274,26.1923077 L91.0943699,21.8810769 L88.0550639,21.8810769 L88.0550639,26.1923077 L85.3784338,26.1923077 L85.3784338,17.2317692 L85.3784338,17.2317692 Z" id="Fill-1" fill="#FFFFFF"></path>
                            <path d="M54.6787778,15.4728462 L54.6787778,17.4313846 L50.7169239,17.4313846 L50.7169239,26.1918462 L48.0405236,26.1918462 L48.0405236,17.4313846 L44.0784399,17.4313846 L44.0784399,17.2317692 C44.0784399,16.2604615 44.8628584,15.4728462 45.8299939,15.4728462 L54.6787778,15.4728462" id="Fill-2" fill="#FFFFFF"></path>
                            <path d="M71.2795845,17.2317692 C71.2795845,16.2604615 72.064003,15.4728462 73.0313683,15.4728462 L73.9415053,15.4728462 L73.9415053,21.6685385 C73.9415053,22.7856923 74.0430913,23.1431538 74.4790837,23.5806923 C75.0175814,24.1206923 75.89807,24.3560769 77.0267778,24.3560769 C78.1543364,24.3560769 79.0355145,24.1206923 79.5733227,23.5806923 C80.0097747,23.1431538 80.1113607,22.7856923 80.1113607,21.6685385 L80.1113607,17.2317692 C80.1113607,16.2604615 80.8953196,15.4728462 81.8631446,15.4728462 L82.7732816,15.4728462 L82.7732816,21.6685385 C82.7578828,22.8071538 82.7578828,23.8853077 81.8505038,24.8868462 C80.746618,26.1170769 78.6447991,26.5262308 77.0267778,26.5262308 C75.4085266,26.5262308 73.3067078,26.1170769 72.2019026,24.8868462 C71.2947534,23.8853077 71.2947534,22.8071538 71.2795845,21.6685385 L71.2795845,17.2317692" id="Fill-3" fill="#FFFFFF"></path>
                            <path d="M55.9028661,20.8324615 C55.9028661,17.1429231 58.6054673,15.1386923 62.4441309,15.1386923 C66.2841735,15.1386923 68.9853957,17.1429231 68.9853957,20.8324615 C68.9853957,24.5226923 66.2841735,26.5262308 62.4441309,26.5262308 C58.6054673,26.5262308 55.9028661,24.5226923 55.9028661,20.8324615 M62.4441309,24.6009231 C64.4641294,24.6009231 66.2331507,23.1355385 66.2331507,20.8324615 C66.2331507,18.5293846 64.4641294,17.0651538 62.4441309,17.0651538 C60.4241324,17.0651538 58.6555708,18.5293846 58.6555708,20.8324615 C58.6555708,23.1355385 60.4241324,24.6009231 62.4441309,24.6009231" id="Fill-4" fill="#FFFFFF"></path>
                            <path d="M54.6787778,0.905076923 L54.6787778,2.85553846 L46.798968,2.85553846 L46.798968,5.21676923 L54.6787778,5.21676923 L54.6787778,7.16746154 L46.798968,7.16746154 L46.798968,9.67569231 L54.6787778,9.67569231 L54.6787778,11.6245385 L44.4319224,11.6245385 L44.4319224,2.66330769 C44.4319224,1.69338462 45.2161111,0.905076923 46.1834764,0.905076923 L54.6787778,0.905076923" id="Fill-5" fill="#FFFFFF"></path>
                            <path d="M122.659575,0.905076923 L122.659575,2.85553846 L114.778846,2.85553846 L114.778846,5.21676923 L122.659575,5.21676923 L122.659575,7.16746154 L114.778846,7.16746154 L114.778846,9.67569231 L122.659575,9.67569231 L122.659575,11.6245385 L112.41203,11.6245385 L112.41203,2.66330769 C112.41203,1.69338462 113.195989,0.905076923 114.163125,0.905076923 L122.659575,0.905076923" id="Fill-6" fill="#FFFFFF"></path>
                            <path d="M129.481696,0.905076923 L132.370231,0.905076923 L137.525836,11.6245385 L134.532266,11.6245385 L133.624658,9.60576923 L128.150505,9.60576923 L127.243356,11.6245385 L124.324482,11.6245385 L129.481696,0.905076923 L129.481696,0.905076923 Z M131.174872,4.2 C131.099027,4.06315385 131.038581,3.912 130.993764,3.77469231 C130.948257,3.63830769 130.918149,3.50192308 130.90275,3.35053846 C130.857703,3.48692308 130.826906,3.60830769 130.797027,3.72923077 C130.736581,3.86653846 130.691075,4.00246154 130.630629,4.13930769 L129.012377,7.707 L132.762785,7.707 L131.174872,4.2 L131.174872,4.2 Z" id="Fill-7" fill="#FFFFFF"></path>
                            <path d="M102.366279,5.71176923 L105.65863,5.71176923 C106.518893,5.71176923 107.697015,5.69630769 107.697015,4.27153846 C107.697015,3.69576923 107.500738,3.33115385 107.244015,3.08861538 C106.881339,2.77084615 106.488785,2.77084615 105.371799,2.77084615 L102.366279,2.77084615 L102.366279,5.71176923 L102.366279,5.71176923 Z M99.7386027,2.66376923 C99.7386027,1.69292308 100.523021,0.905076923 101.490387,0.905076923 L106.322387,0.905076923 C107.455691,0.905076923 108.920414,0.951230769 109.765738,2.16369231 C110.142893,2.70992308 110.354569,3.453 110.354569,4.27153846 C110.354569,5.30261538 110.022461,5.99976923 109.629907,6.46961538 C108.753785,7.53069231 107.47063,7.59184615 106.096691,7.59184615 L102.366279,7.59184615 L102.366279,11.6245385 L99.7386027,11.6245385 L99.7386027,2.66376923 L99.7386027,2.66376923 Z" id="Fill-8" fill="#FFFFFF"></path>
                            <path d="M73.9564444,5.41546154 L78.2209878,5.41546154 C78.7957991,5.41546154 79.8242998,5.33930769 79.8242998,4.13930769 C79.8242998,3.92676923 79.7939619,3.56261538 79.612624,3.30484615 C79.4158874,3.04638462 79.1587047,2.78815385 78.0998661,2.78815385 L73.9564444,2.78815385 L73.9564444,5.41546154 L73.9564444,5.41546154 Z M71.2795845,2.66376923 C71.2795845,1.69292308 72.064003,0.905076923 73.0313683,0.905076923 L78.62986,0.905076923 C79.839239,0.905076923 80.942895,1.01169231 81.835105,2.04461538 C82.3798082,2.68176923 82.5310381,3.48692308 82.5310381,4.10953846 C82.5310381,4.92923077 82.2584566,5.901 81.502997,6.47746154 C80.9281857,6.91823077 80.1869756,7.07007692 79.7638539,7.14576923 L82.9994368,11.6245385 L79.8544079,11.6245385 L76.9957504,7.31284615 L73.9564444,7.31284615 L73.9564444,11.6245385 L71.2795845,11.6245385 L71.2795845,2.66376923 L71.2795845,2.66376923 Z" id="Fill-9" fill="#FFFFFF"></path>
                            <path d="M57.1802755,2.66376923 C57.1802755,1.69292308 57.9644642,0.905076923 58.9322892,0.905076923 L59.8415068,0.905076923 L59.8415068,7.10030769 C59.8415068,8.21838462 59.9433227,8.57561538 60.3795449,9.01338462 C60.9180426,9.55407692 61.7989909,9.78830769 62.9267793,9.78830769 C64.0545677,9.78830769 64.9359756,9.55407692 65.4740137,9.01338462 C65.9106956,8.57561538 66.0120518,8.21838462 66.0120518,7.10030769 L66.0120518,2.66376923 C66.0120518,1.69292308 66.7957808,0.905076923 67.7636058,0.905076923 L68.6732831,0.905076923 L68.6732831,7.10030769 C68.658344,8.23915385 68.658344,9.31707692 67.7507352,10.3188462 C66.6470791,11.5490769 64.5450304,11.9591538 62.9267793,11.9591538 C61.3085282,11.9591538 59.2069391,11.5490769 58.1032831,10.3188462 C57.1956743,9.31707692 57.1956743,8.23915385 57.1802755,7.10030769 L57.1802755,2.66376923" id="Fill-10" fill="#FFFFFF"></path>
                            <path d="M84.3081035,6.26492308 C84.3081035,2.57561538 87.0107047,0.571153846 90.849828,0.571153846 C94.6889513,0.571153846 97.3915525,2.57561538 97.3915525,6.26492308 C97.3915525,9.95492308 94.6889513,11.9591538 90.849828,11.9591538 C87.0107047,11.9591538 84.3081035,9.95492308 84.3081035,6.26492308 M90.849828,10.0338462 C92.8693668,10.0338462 94.6388478,8.56823077 94.6388478,6.26492308 C94.6388478,3.96230769 92.8693668,2.49761538 90.849828,2.49761538 C88.8298295,2.49761538 87.0612679,3.96230769 87.0612679,6.26492308 C87.0612679,8.56823077 88.8298295,10.0338462 90.849828,10.0338462" id="Fill-11" fill="#FFFFFF"></path>
                            <path d="M150.834291,0.905076923 L150.834291,11.6245385 L148.187539,11.6245385 L142.895184,5.58161538 C142.335542,4.92923077 142.108008,4.656 141.518257,3.89653846 C141.594102,4.71669231 141.594102,4.89876923 141.609041,5.71846154 L141.609041,11.6245385 L139.068702,11.6245385 L139.068702,2.66330769 C139.068702,1.69338462 139.852201,0.905076923 140.820256,0.905076923 L141.730393,0.905076923 L146.961842,6.873 C147.597329,7.61653846 147.718221,7.76884615 148.383816,8.60284615 C148.293262,7.58607692 148.293262,7.31284615 148.277403,6.38676923 L148.277403,2.66330769 C148.277403,1.69338462 149.061822,0.905076923 150.029417,0.905076923 L150.834291,0.905076923" id="Fill-12" fill="#FFFFFF"></path>
                            <path d="M29.6589741,12.7273846 C30.0223394,12.8367692 30.7598721,13.3301538 31.0988752,13.2387692 C31.1009437,12.9694615 30.7352801,12.6443077 30.6449559,12.4693846 C30.5245236,12.2395385 30.5169391,12.0057692 30.3760518,11.7793846 C30.1572511,11.4228462 30.0053318,11.1069231 30.1597793,10.8364615 C30.1597793,10.8168462 29.8701903,10.4886923 29.6077215,10.4298462 C29.4254642,10.3903846 29.2533196,10.344 29.0791065,10.2653077 C28.9253486,10.1963077 28.7704414,10.0737692 28.5978371,10.083 C28.4364947,10.0917692 28.2719346,10.0836923 28.1131202,10.0476923 C27.9685556,10.0126154 27.8906423,9.94153846 27.7846895,9.84230769 C27.7446986,9.80838462 27.7060868,9.77746154 27.6672451,9.74353846 C27.6281735,9.71307692 27.5647397,9.71976923 27.531414,9.74907692 C27.4119011,9.85569231 27.525898,10.0163077 27.5647397,10.1233846 C27.5815175,10.1628462 27.6323105,10.2837692 27.5718645,10.3273846 C27.0793333,10.6834615 25.5909376,11.5876154 25.4231598,11.8809231 C25.4001766,11.9203846 25.3946606,11.9596154 25.4493607,12.0186923 C25.525895,12.1045385 25.6826408,12.1045385 25.7851461,12.1015385 C25.783997,12.1216154 26.941204,12.06 27.3925951,12.0671538 C27.8435266,12.0733846 28.5461248,12.4876154 28.6603516,12.5409231 C28.8228432,12.6177692 29.5017686,12.6823846 29.6589741,12.7273846" id="Fill-13" fill="#FFFFFF"></path>
                            <polyline id="Fill-14" fill="#FFFFFF" points="28.6187519 23.9794615 29.1783942 23.9794615 29.1783942 25.4561538 29.5247519 25.4561538 29.5247519 23.9794615 30.0843942 23.9794615 30.0843942 23.6633077 28.6187519 23.6633077 28.6187519 23.9794615"></polyline>
                            <g id="Group-18">
                                <mask id="mask-2" fill="white">
                                    <use xlink:href="#path-1"></use>
                                </mask>
                                <g id="Clip-16"></g>
                                <polyline id="Fill-15" fill="#FFFFFF" mask="url(#mask-2)" points="31.395589 24.9327692 30.9538508 23.6633077 30.4410944 23.6633077 30.4410944 25.4561538 30.7883714 25.4561538 30.7883714 24.2125385 31.2280411 25.4561538 31.5263638 25.4561538 31.9669528 24.2125385 31.9669528 25.4561538 32.3149193 25.4561538 32.3149193 23.6633077 31.8292831 23.6633077 31.395589 24.9327692"></polyline>
                                <path d="M37.4358189,23.8938462 C37.4358189,25.1633077 36.4109954,26.1923077 35.1466865,26.1923077 L28.0972618,26.1923077 C27.9765997,25.4411538 27.8476636,24.3473077 27.9526971,23.0289231 C27.9552253,23.0180769 27.9552253,22.9843846 27.9552253,22.9640769 C27.9641887,22.6758462 27.9561446,20.2818462 27.9513181,19.0878462 C27.9497093,18.6846923 27.9485601,18.4181538 27.9485601,18.4158462 C27.9485601,18.4158462 30.0706043,18.2021538 30.9067352,18.2363077 L30.906965,18.2363077 C30.9140898,18.2363077 30.9276499,18.2358462 30.9432785,18.2351538 C30.9775236,18.2337692 31.0257884,18.2307692 31.070376,18.2259231 C31.4479909,18.1869231 32.8649087,18.0803077 33.6642664,17.9383846 C33.682653,17.9346923 33.723793,17.9150769 33.7667717,17.8903846 C33.8718052,17.8292308 34.1602451,17.6861538 34.7352861,17.4484615 C34.8026271,17.424 34.8681294,17.4006923 34.9320228,17.3778462 C35.8881263,17.0353846 36.4286925,16.8256154 35.929726,15.6004615 C35.931105,15.6016154 35.9294962,15.5903077 35.9251294,15.5681538 C35.8727275,15.2928462 35.4059376,13.3347692 34.7591887,12.2473846 C34.6224384,12.0173077 34.4778737,11.8255385 34.3273333,11.6976923 C34.3142329,11.7115385 34.0878478,11.2266923 33.8899619,10.8950769 C33.824,10.7845385 33.7612557,10.6910769 33.7104627,10.6386923 C33.5934779,10.5168462 33.574172,10.3068462 33.4567275,10.0504615 C33.423172,9.97707692 33.382032,9.9 33.3275616,9.81992308 C33.2457412,9.69992308 33.1354216,9.57346154 32.9807443,9.444 C32.6295601,9.21807692 32.4978661,9.09692308 32.3135403,9.11261538 C32.1703546,9.12461538 31.9954521,9.21923077 31.6610457,9.41215385 C31.6610457,9.41215385 30.9678706,8.85923077 31.0248691,8.07392308 C31.0255586,8.06238462 31.0250989,8.05130769 31.0262481,8.03953846 C31.0917504,7.99823077 31.1887397,7.93592308 31.2517139,7.88353846 C31.4930381,7.401 30.9595967,6.87 30.6991963,6.88084615 C30.6123196,6.906 30.591175,6.92284615 30.5185479,6.945 C30.5185479,6.92769231 30.1172603,6.61315385 29.9002983,6.60946154 C29.9002983,6.60946154 29.5750852,6.53238462 29.4774064,6.65769231 C29.4751081,6.65515385 29.4663744,6.65076923 29.4530441,6.64569231 C29.3532968,6.60807692 28.9710852,6.53630769 28.8187062,6.906 C28.8187062,6.88846154 28.6141553,7.03084615 28.6141553,7.03084615 C28.6141553,7.03084615 28.4739574,6.92630769 28.3645571,6.91269231 C28.3280137,6.90807692 28.2951476,6.91361538 28.2719346,6.936 C28.2710152,6.93461538 28.1020883,6.59538462 27.7479163,6.58038462 C27.6297823,6.57553846 27.4907336,6.60669231 27.3305403,6.699 C27.3305403,6.699 26.3093942,7.20276923 26.2535449,7.41830769 C26.236997,7.43884615 25.731825,7.15707692 25.4176438,7.38969231 C25.4125875,7.38530769 25.3126104,7.45107692 25.1652877,7.55215385 C24.7233196,7.85607692 23.8557017,8.48076923 23.8474277,8.49946154 C23.8095053,8.56638462 23.7210198,8.64346154 23.5897854,8.72907692 C23.5461172,8.75769231 23.4976225,8.78723077 23.444761,8.81746154 L23.3197321,8.86476923 C23.3169741,8.85969231 23.3167443,8.85507692 23.3160548,8.853 C23.4109756,8.76092308 23.5081948,8.39284615 23.5893257,7.99015385 C23.7290639,7.89253846 24.4091385,7.39223077 24.8007732,6.696 C24.916379,6.49107692 25.0080822,6.27 25.05221,6.036 C25.0843866,5.86246154 25.0758828,5.71246154 25.0365814,5.57561538 C24.8936256,5.07323077 24.3160563,4.75569231 23.6235708,4.17392308 C22.7679041,3.456 21.7472177,2.75330769 20.4645221,2.89361538 C20.1622922,2.92661538 19.6403425,2.95823077 19.1305738,2.98569231 C18.5851811,3.015 18.0538082,3.03946154 17.8202983,3.05630769 C17.3785601,3.08815385 16.957277,3.21184615 16.6083912,3.40015385 C15.6927382,3.894 15.2765114,4.83207692 16.2981172,5.71592308 C16.4440609,5.84215385 16.6194231,5.96746154 16.8267321,6.09 C16.8163896,6.09346154 16.8143212,6.09715385 16.8258128,6.10061538 C16.8232846,6.12853846 16.8230548,6.16061538 16.824204,6.19523077 C16.8333973,6.438 16.9241811,6.80930769 16.9241811,6.80930769 L16.6679178,7.28884615 C16.6679178,7.28884615 16.7400852,8.94853846 17.0779391,9.66069231 C17.0779391,9.66069231 17.1103455,9.74353846 17.1383851,9.84669231 C17.1661948,9.95007692 17.1896377,10.0737692 17.1721705,10.1552308 C17.1271233,10.362 17.3243196,10.7642308 17.7803075,10.9569231 C16.8363851,11.265 16.0600107,11.514 15.7198584,11.6319231 C15.7198584,11.6319231 15.3714323,11.9206154 14.7814521,12.1149231 C14.1174658,12.5063077 13.5240381,12.9939231 13.1785997,13.7741538 C12.9710609,14.2423846 12.8526971,14.8158462 12.8618904,15.537 C11.5189787,16.3105385 10.0611507,17.1498462 8.73593607,17.9123077 C7.61458295,18.5575385 6.58815068,19.1476154 5.80649011,19.5969231 C5.23788432,19.9234615 4.79890411,20.1754615 4.54677778,20.3199231 C3.85705023,20.7152308 3.46794368,20.6787692 2.8274003,21.5501538 C2.67731963,21.7534615 2.54815373,22.0045385 2.45346271,22.272 C2.28568493,22.7450769 2.22891629,23.271 2.3771583,23.6861538 C2.53689193,24.1296923 2.94921157,24.4730769 3.40450989,24.5356154 C3.45760122,24.543 3.51092237,24.5506154 3.56493303,24.5499231 C3.63870928,24.5487692 3.71317504,24.5397692 3.78718113,24.5222308 C4.90669559,24.2552308 4.7225997,23.055 4.47461035,22.1132308 C4.40703957,21.8563846 4.33487215,21.6175385 4.28292998,21.4236923 C4.21214155,21.1578462 4.43507915,20.8599231 4.9110624,20.5767692 C6.23673668,19.7884615 9.86372451,17.7129231 12.8818858,15.9830769 C12.9738189,17.1325385 13.3553409,18.6159231 14.1524003,20.5705385 C14.156997,20.6997692 14.1629726,20.8264615 14.1677991,20.9566154 C14.1677991,20.9566154 14.1402192,21.2118462 14.1705571,21.4772308 C14.1866454,21.6200769 14.2192816,21.7659231 14.2824855,21.8764615 C14.3040898,21.8764615 14.0600076,23.8506923 14.0400122,24.7479231 C14.0400122,24.7592308 14.0427702,24.7968462 14.0482861,24.8201538 C14.0733379,24.9842308 14.1733151,25.6248462 14.2369787,26.1923077 L0.804414003,26.1923077 L0.804414003,3.20353846 C0.804414003,1.93407692 1.82923744,0.905076923 3.09354642,0.905076923 L37.4358189,0.905076923 L37.4358189,23.8938462 L37.4358189,23.8938462 Z M37.4358189,0.0973846154 L3.08458295,0.0973846154 C1.38382192,0.0973846154 0,1.48684615 0,3.19453846 L0,27 L35.1556499,27 C36.856411,27 38.2402329,25.6105385 38.2402329,23.9028462 L38.2402329,0.0973846154 L37.4358189,0.0973846154 L37.4358189,0.0973846154 Z" id="Fill-17" fill="#FFFFFF" mask="url(#mask-2)"></path>
                            </g>
                        </g>
                    </g>
                </g>
            </g>
        </g>
    </g>
</svg>