<?xml version="1.0" encoding="UTF-8" standalone="no"?>
<svg width="164px" height="25px" viewBox="0 0 164 25" version="1.1" xmlns="http://www.w3.org/2000/svg" xmlns:xlink="http://www.w3.org/1999/xlink">
    <!-- Generator: sketchtool 41 (35326) - http://www.bohemiancoding.com/sketch -->
    <title>20C24F36-F5EF-41C7-9E0F-79D9CCC6D935</title>
    <desc>Created with sketchtool.</desc>
    <defs>
        <polygon id="path-1" points="15.7183419 6.34413157e-15 0.787288172 0 0.787288172 13.10875 15.7183419 13.10875 15.7183419 1.26882631e-14"></polygon>
        <polygon id="path-3" points="14.1128172 12.7239286 14.1128172 0.384642857 0.684303226 0.384642857 0.684303226 12.7239286 14.1128172 12.7239286"></polygon>
    </defs>
    <g id="Page-1" stroke="none" stroke-width="1" fill="none" fill-rule="evenodd">
        <g id="CP-001-Navigation-01M" transform="translate(-20.000000, -2968.000000)">
            <g id="CP-001-:-navigation-:-tour-selected-:-01M" transform="translate(0.000000, 2945.000000)">
                <g id="hero-dropdown" transform="translate(20.000000, 23.000000)">
                    <g id="logo-:-senior-tour">
                        <path d="M0,24.7508036 L0,2.59991071 C0,1.37669643 0.979591398,0.384732143 2.18754839,0.384732143 L34.9990108,0.384732143 L34.9990108,22.535625 C34.9990108,23.7588393 34.0203011,24.7508036 32.8123441,24.7508036 L0,24.7508036 Z" id="Fill-1" fill="#C41230"></path>
                        <path d="M23.8677312,11.173125 C23.7698602,11.1758036 23.6199677,11.1758036 23.5467849,11.0936607 C23.4947634,11.0365179 23.5000538,10.9990179 23.5220968,10.960625 C23.6825699,10.6784821 25.1039032,9.80616071 25.5747419,9.46330357 C25.6329355,9.42223214 25.5835591,9.30526786 25.5676882,9.26776786 C25.5315376,9.16419643 25.4222043,9.00973214 25.5359462,8.90616071 C25.5676882,8.87758929 25.6285269,8.87223214 25.6655591,8.90080357 C25.7034731,8.93383929 25.7405054,8.96419643 25.7775376,8.99633929 C25.8798172,9.091875 25.9538817,9.15973214 26.0923118,9.19455357 C26.2439677,9.22848214 26.400914,9.23651786 26.5552151,9.22848214 C26.7200968,9.21955357 26.8682258,9.33741071 27.0154731,9.404375 C27.1812366,9.479375 27.3461183,9.52401786 27.5198172,9.56241071 C27.7711075,9.61955357 28.047086,9.93473214 28.047086,9.954375 C27.8998387,10.2150893 28.0453226,10.5195536 28.2542903,10.8624107 C28.3891935,11.0811607 28.3953656,11.3061607 28.510871,11.5275893 C28.5972796,11.6963393 28.9464409,12.0097321 28.9446774,12.2695536 C28.621086,12.3570536 27.9157097,11.8820536 27.5683118,11.7766964 C27.4193011,11.7329464 26.7703548,11.6704464 26.6142903,11.5972321 C26.5058387,11.5454464 25.8339677,11.1463393 25.4036882,11.1400893 C24.9725269,11.1329464 23.8668495,11.1927679 23.8677312,11.173125 M25.9388925,21.7025893 C25.9406559,21.691875 25.9406559,21.6597321 25.9406559,21.6400893 C25.9521183,21.2686607 25.9344839,17.2579464 25.9344839,17.2579464 C25.9344839,17.2579464 27.9624409,17.0516964 28.7612796,17.0847321 C28.7824409,17.0847321 28.8556237,17.0811607 28.9173441,17.0749107 C29.2779677,17.0374107 30.6322903,16.9338393 31.3958602,16.7972321 C31.4134946,16.7936607 31.453172,16.7749107 31.4937312,16.7516964 C31.5942473,16.691875 31.8693441,16.554375 32.4195376,16.3258036 C33.4467419,15.9499107 34.0683548,15.8034821 33.5604839,14.5454464 C33.5798817,14.5615179 32.9088925,11.5383036 32.0298172,10.7847321 C32.0121828,10.8016964 31.6339247,9.96508929 31.4399462,9.76330357 C31.2477312,9.56241071 31.3341398,9.11241071 30.7425054,8.61241071 C30.1455806,8.22580357 30.2125914,8.15705357 29.4816452,8.58205357 C29.4816452,8.58205357 28.7974301,8.03383929 28.8750215,7.25883929 C28.9376237,7.21955357 29.0302043,7.15973214 29.091043,7.10883929 C29.321172,6.64455357 28.8115376,6.13294643 28.5628925,6.14276786 C28.4800108,6.166875 28.4597312,6.18294643 28.3900753,6.204375 C28.3900753,6.18830357 28.0065269,5.88473214 27.7993226,5.88116071 C27.7993226,5.88116071 27.4880753,5.80705357 27.3954946,5.92758929 C27.3778602,5.90616071 26.930828,5.76330357 26.766828,6.166875 C26.766828,6.14991071 26.571086,6.28741071 26.571086,6.28741071 C26.571086,6.28741071 26.3330215,6.10883929 26.2439677,6.19633929 C26.2439677,6.19633929 25.9565269,5.61241071 25.3437312,5.966875 C25.3437312,5.966875 24.3685484,6.45258929 24.3156452,6.660625 C24.2997742,6.68026786 23.8165914,6.40883929 23.5168065,6.63294643 C23.4965269,6.61598214 22.0266989,7.67848214 22.017,7.70258929 C21.9685054,7.78830357 21.8336022,7.891875 21.6316882,8.00883929 L21.5117742,8.054375 C21.509129,8.04991071 21.509129,8.04544643 21.509129,8.04276786 C21.5990645,7.954375 21.6925269,7.59991071 21.7701183,7.21151786 C21.9429355,7.09008929 22.9816022,6.31955357 23.1676452,5.329375 C23.3122473,4.548125 22.6447849,4.248125 21.8027419,3.53383929 C20.9845054,2.84276786 20.0093226,2.16598214 18.7846129,2.30080357 C18.1868065,2.366875 16.6896452,2.42669643 16.2584839,2.45794643 C14.5691075,2.58026786 13.1953871,4.12044643 15.308871,5.38026786 C15.2982903,5.38473214 15.2965269,5.38741071 15.3079892,5.39098214 C15.2885914,5.60616071 15.4014516,6.07401786 15.4014516,6.07401786 L15.1572151,6.53651786 C15.1572151,6.53651786 15.2259892,8.135625 15.5486989,8.82133929 C15.5486989,8.82133929 15.6721398,9.14098214 15.6386344,9.298125 C15.5954301,9.49723214 15.7841183,9.88473214 16.2196882,10.0704464 C15.3176882,10.3677679 14.5761613,10.6070536 14.2508065,10.7204464 C14.2508065,10.7204464 13.9183978,10.9990179 13.3540968,11.185625 C12.3401183,11.7900893 11.4971935,12.6302679 11.521,14.4838393 C8.3617957,16.3186607 4.53865591,18.535625 3.5758172,19.091875 C2.91717204,19.473125 2.54508602,19.4383036 1.93317204,20.2775893 C1.53639785,20.8204464 1.28158065,21.7097321 1.50289247,22.335625 C1.69775269,22.8820536 2.28497849,23.2766964 2.85016129,23.141875 C4.21065591,22.8141964 3.55553763,21.0284821 3.32364516,20.1561607 C3.25575269,19.8999107 3.46912903,19.6124107 3.92409677,19.3400893 C5.19024731,18.5802679 8.65629032,16.5802679 11.5395161,14.9133036 C11.6276882,16.0213393 11.9918387,17.4508036 12.7536452,19.3338393 C12.7580538,19.4588393 12.7633441,19.5802679 12.7686344,19.7061607 C12.7686344,19.7061607 12.7051505,20.2883036 12.8779677,20.591875 C12.8982473,20.591875 12.6654731,22.4945536 12.6460753,23.3588393 C12.6460753,23.3704464 12.6487204,23.4061607 12.6540108,23.4284821 C12.6778172,23.5865179 12.7739247,24.204375 12.8338817,24.7508036 L26.0764409,24.7508036 C25.9609355,24.0266964 25.8383763,22.973125 25.9388925,21.7025893" id="Fill-3" fill="#FFFFFF"></path>
                        <path d="M53.3783849,0.384642857 L53.3783849,2.62839286 L44.3839548,2.62839286 L44.3839548,5.34714286 L53.3783849,5.34714286 L53.3783849,7.59178571 L44.3839548,7.59178571 L44.3839548,10.4792857 L53.3783849,10.4792857 L53.3783849,12.7239286 L41.6832452,12.7239286 L41.6832452,2.40875 C41.6832452,1.29089286 42.5773097,0.384642857 43.6821054,0.384642857 L53.3783849,0.384642857 Z" id="Fill-5" fill="#C41230"></path>
                        <path d="M130.966256,0.384642857 L130.966256,2.62839286 L121.972708,2.62839286 L121.972708,5.34714286 L130.966256,5.34714286 L130.966256,7.59178571 L121.972708,7.59178571 L121.972708,10.4792857 L130.966256,10.4792857 L130.966256,12.7239286 L119.270234,12.7239286 L119.270234,2.40875 C119.270234,1.29089286 120.166062,0.384642857 121.269976,0.384642857 L130.966256,0.384642857 Z" id="Fill-7" fill="#C41230"></path>
                        <path d="M140.686077,4.17732143 C140.599669,4.02017857 140.530013,3.84517857 140.478873,3.68714286 C140.426852,3.53089286 140.393346,3.37285714 140.375712,3.19785714 C140.32369,3.35589286 140.288422,3.49607143 140.254034,3.63625 C140.18526,3.7925 140.133239,3.95053571 140.064465,4.10767857 L138.21726,8.21482143 L142.498895,8.21482143 L140.686077,4.17732143 Z M138.753346,0.384464286 L142.050099,0.384464286 L147.934701,12.72375 L144.518034,12.72375 L143.482013,10.39875 L137.234142,10.39875 L136.199002,12.72375 L132.866981,12.72375 L138.753346,0.384464286 Z" id="Fill-9" fill="#C41230"></path>
                        <path d="M104.806845,2.40892857 C104.806845,1.29017857 105.701791,0.384821429 106.805705,0.384821429 L112.320867,0.384821429 C113.613469,0.384821429 115.286092,0.436607143 116.251576,1.83303571 C116.680974,2.46160714 116.922566,3.31696429 116.922566,4.25892857 C116.922566,5.44553571 116.543426,6.24910714 116.095512,6.78928571 C115.095641,8.01160714 113.631103,8.08125 112.062523,8.08125 L107.805576,8.08125 L107.805576,12.7241071 L104.806845,12.7241071 L104.806845,2.40892857 Z M107.805576,5.91696429 L111.563469,5.91696429 C112.545705,5.91696429 113.888566,5.89910714 113.888566,4.25892857 C113.888566,3.59553571 113.66549,3.17678571 113.372759,2.89732143 C112.958351,2.53125 112.511318,2.53125 111.235469,2.53125 L107.805576,2.53125 L107.805576,5.91696429 Z" id="Fill-11" fill="#C41230"></path>
                        <path d="M72.3252344,2.40892857 C72.3252344,1.29017857 73.2201806,0.384821429 74.3240946,0.384821429 L80.7139226,0.384821429 C82.0946968,0.384821429 83.3537935,0.50625 84.3721806,1.69553571 C84.9937935,2.42946429 85.1666108,3.35535714 85.1666108,4.07232143 C85.1666108,5.01607143 84.8562452,6.13482143 83.9921591,6.79910714 C83.3370409,7.30535714 82.4923527,7.48035714 82.0082882,7.56785714 L85.7018151,12.7241071 L82.1114495,12.7241071 L78.8499656,7.75982143 L75.379514,7.75982143 L75.379514,12.7241071 L72.3252344,12.7241071 L72.3252344,2.40892857 Z M75.379514,5.575 L80.2474925,5.575 C80.9034925,5.575 82.0770624,5.4875 82.0770624,4.10714286 C82.0770624,3.8625 82.0426753,3.44285714 81.835471,3.14642857 C81.6106323,2.84910714 81.3179011,2.55178571 80.1090624,2.55178571 L75.379514,2.55178571 L75.379514,5.575 Z" id="Fill-13" fill="#C41230"></path>
                        <path d="M56.2327785,2.40892857 C56.2327785,1.29017857 57.1277247,0.384821429 58.2325204,0.384821429 L59.2703054,0.384821429 L59.2703054,7.51517857 C59.2703054,8.80178571 59.3866925,9.21339286 59.8839828,9.71785714 C60.4994237,10.3392857 61.5045849,10.6098214 62.7918968,10.6098214 C64.0792086,10.6098214 65.0843699,10.3392857 65.698929,9.71785714 C66.1971011,9.21339286 66.3126065,8.80178571 66.3126065,7.51517857 L66.3126065,2.40892857 C66.3126065,1.29017857 67.2075527,0.384821429 68.3123484,0.384821429 L69.3501333,0.384821429 L69.3501333,7.51517857 C69.3333806,8.82589286 69.3333806,10.0669643 68.2973591,11.2205357 C67.0382624,12.6366071 64.6382194,13.1080357 62.7918968,13.1080357 C60.9446925,13.1080357 58.5455312,12.6366071 57.2855527,11.2205357 C56.2504129,10.0669643 56.2504129,8.82589286 56.2327785,7.51517857 L56.2327785,2.40892857 Z" id="Fill-15" fill="#C41230"></path>
                        <g id="Group-19" transform="translate(86.408602, 0.000000)">
                            <mask id="mask-2" fill="white">
                                <use xlink:href="#path-1"></use>
                            </mask>
                            <g id="Clip-18"></g>
                            <path d="M8.25281505,10.8908929 C10.558514,10.8908929 12.576772,9.20517857 12.576772,6.55428571 C12.576772,3.90339286 10.558514,2.21678571 8.25281505,2.21678571 C5.94711613,2.21678571 3.92797634,3.90339286 3.92797634,6.55428571 C3.92797634,9.20517857 5.94711613,10.8908929 8.25281505,10.8908929 M0.787288172,6.55428571 C0.787288172,2.30696429 3.87066452,-0.000178571429 8.25281505,-0.000178571429 C12.6340839,-0.000178571429 15.7183419,2.30696429 15.7183419,6.55428571 C15.7183419,10.8007143 12.6340839,13.10875 8.25281505,13.10875 C3.87066452,13.10875 0.787288172,10.8007143 0.787288172,6.55428571" id="Fill-17" fill="#C41230" mask="url(#mask-2)"></path>
                        </g>
                        <g id="Group-22" transform="translate(149.010753, 0.000000)">
                            <mask id="mask-4" fill="white">
                                <use xlink:href="#path-3"></use>
                            </mask>
                            <g id="Clip-21"></g>
                            <path d="M14.1129054,0.384642857 L14.1129054,12.7239286 L11.0930129,12.7239286 L5.05146452,5.76767857 C4.41309892,5.01589286 4.15387312,4.70160714 3.48023871,3.82660714 C3.56752903,4.77125 3.56752903,4.98107143 3.58428172,5.92482143 L3.58428172,12.7239286 L0.684303226,12.7239286 L0.684303226,2.40875 C0.684303226,1.29089286 1.57924946,0.384642857 2.68404516,0.384642857 L3.72271183,0.384642857 L9.69372258,7.25339286 C10.4193785,8.10964286 10.5569269,8.28464286 11.3169699,9.24535714 C11.2129269,8.07482143 11.2129269,7.75964286 11.1952925,6.69357143 L11.1952925,2.40875 C11.1952925,1.29089286 12.0902387,0.384642857 13.1950344,0.384642857 L14.1129054,0.384642857 Z" id="Fill-20" fill="#C41230" mask="url(#mask-4)"></path>
                        </g>
                        <polygon id="Fill-23" fill="#FFFFFF" points="27.1067312 22.74875 26.6217849 22.74875 26.6217849 22.57375 27.791828 22.57375 27.791828 22.74875 27.3068817 22.74875 27.3068817 24.0389286 27.1067312 24.0389286"></polygon>
                        <polygon id="Fill-25" fill="#FFFFFF" points="29.3260215 22.7202679 29.3216129 22.7202679 28.8587097 24.0390179 28.6709032 24.0390179 28.2071183 22.7202679 28.2035914 22.7202679 28.2035914 24.0390179 28.0034409 24.0390179 28.0034409 22.5738393 28.3623011 22.5738393 28.7784731 23.781875 28.7828817 23.781875 29.1911183 22.5738393 29.526172 22.5738393 29.526172 24.0390179 29.3260215 24.0390179"></polygon>
                        <path d="M125.530009,18.459375 C125.530009,17.7799107 126.07403,17.2290179 126.744138,17.2290179 L130.627234,17.2290179 C131.464869,17.2290179 132.231966,17.3040179 132.850052,18.0263393 C133.227428,18.471875 133.332353,19.034375 133.332353,19.4700893 C133.332353,20.0433036 133.143665,20.7236607 132.619041,21.1263393 C132.220503,21.434375 131.70646,21.5415179 131.412847,21.5933036 L133.656826,24.7263393 L131.475449,24.7263393 L129.495105,21.7111607 L127.38603,21.7111607 L127.38603,24.7263393 L125.530009,24.7263393 L125.530009,18.459375 Z M127.38603,20.3825893 L130.344202,20.3825893 C130.741858,20.3825893 131.45517,20.3299107 131.45517,19.4915179 C131.45517,19.3424107 131.434009,19.0879464 131.307923,18.9075893 C131.171256,18.7263393 130.993148,18.5459821 130.259557,18.5459821 L127.38603,18.5459821 L127.38603,20.3825893 Z" id="Fill-27" fill="#C41230"></path>
                        <path d="M104.081277,17.2292857 L104.081277,18.5989286 L101.332955,18.5989286 L101.332955,24.7266071 L99.4778151,24.7266071 L99.4778151,18.5989286 L96.7312559,18.5989286 L96.7312559,18.4596429 C96.7312559,17.7801786 97.2743957,17.2292857 97.9453849,17.2292857 L104.081277,17.2292857 Z" id="Fill-29" fill="#C41230"></path>
                        <path d="M115.753404,18.459375 C115.753404,17.7799107 116.297426,17.2290179 116.967533,17.2290179 L117.598845,17.2290179 L117.598845,21.5620536 C117.598845,22.3441964 117.670265,22.5933036 117.972695,22.8995536 C118.345662,23.2772321 118.955813,23.4424107 119.738781,23.4424107 C120.519985,23.4424107 121.131017,23.2772321 121.503985,22.8995536 C121.806415,22.5933036 121.877834,22.3441964 121.877834,21.5620536 L121.877834,18.459375 C121.877834,17.7799107 122.420974,17.2290179 123.091963,17.2290179 L123.723275,17.2290179 L123.723275,21.5620536 C123.712695,22.3584821 123.712695,23.1120536 123.083146,23.8138393 C122.317813,24.6736607 120.860329,24.9602679 119.738781,24.9602679 C118.617232,24.9602679 117.157985,24.6736607 116.392652,23.8138393 C115.763103,23.1120536 115.763103,22.3584821 115.753404,21.5620536 L115.753404,18.459375 Z" id="Fill-31" fill="#C41230"></path>
                        <path d="M109.626946,23.6129464 C111.026237,23.6129464 112.25271,22.5879464 112.25271,20.9772321 C112.25271,19.3674107 111.026237,18.3424107 109.626946,18.3424107 C108.225892,18.3424107 106.999419,19.3674107 106.999419,20.9772321 C106.999419,22.5879464 108.225892,23.6129464 109.626946,23.6129464 M105.090495,20.9772321 C105.090495,18.3977679 106.964151,16.9959821 109.626946,16.9959821 C112.287978,16.9959821 114.163398,18.3977679 114.163398,20.9772321 C114.163398,23.559375 112.287978,24.9602679 109.626946,24.9602679 C106.964151,24.9602679 105.090495,23.559375 105.090495,20.9772321" id="Fill-33" fill="#C41230"></path>
                        <path d="M43.3241269,22.4347321 C43.7429441,23.335625 44.8010086,23.610625 45.8061699,23.610625 C46.2558473,23.610625 47.6692452,23.5365179 47.6692452,22.6249107 C47.6692452,22.0847321 47.1560839,21.9579464 46.758428,21.8829464 C46.4551161,21.8204464 44.9367935,21.5865179 44.5911591,21.5222321 C43.910471,21.3954464 42.1937613,21.066875 42.1937613,19.3704464 C42.1937613,18.9999107 42.2978043,18.6177679 42.4873742,18.310625 C43.1045785,17.3034821 44.4659548,17.0383036 45.6377613,17.0383036 C46.7161054,17.0383036 47.5431591,17.198125 48.3076108,17.6213393 C49.0614817,18.0347321 49.3859548,18.5865179 49.5323204,18.829375 L47.7732882,19.2749107 C47.710686,19.1579464 47.5652022,18.8829464 47.1252237,18.660625 C46.6323419,18.416875 45.9939763,18.3740179 45.6377613,18.3740179 C44.8212882,18.3740179 43.9836538,18.5329464 43.9836538,19.2436607 C43.9836538,19.7311607 44.4139333,19.8579464 44.9685355,19.985625 C45.2709656,20.0490179 46.7795892,20.304375 47.1252237,20.3775893 C47.9831376,20.5365179 49.4379763,20.8552679 49.4379763,22.498125 C49.4379763,24.904375 46.6111806,24.9891964 45.6800839,24.9891964 C44.4659548,24.9891964 42.5914172,24.7775893 41.6391591,22.8802679 L43.3241269,22.4347321 Z" id="Fill-35" fill="#C41230"></path>
                        <path d="M75.2136624,21.0665179 C75.2136624,21.978125 75.5478344,22.4558036 75.6853828,22.6352679 C75.8617269,22.890625 76.4066301,23.6638393 77.8411892,23.6638393 C79.5684796,23.6638393 80.4898774,22.4763393 80.4898774,21.0352679 C80.4898774,19.3602679 79.2440065,18.3316964 77.7680065,18.384375 C76.5335978,18.4272321 75.2136624,19.2540179 75.2136624,21.0665179 M81.5885011,18.490625 C81.8926946,18.8620536 82.3846946,19.6888393 82.3846946,20.9388393 C82.3846946,23.3245536 80.8557914,24.9995536 77.8738129,24.9995536 C74.8883075,24.9995536 73.3073828,23.3566964 73.3073828,21.0245536 C73.3073828,18.4486607 75.1290172,17.1441964 77.558157,17.0379464 C79.0129957,16.9745536 80.6679849,17.3566964 81.5885011,18.490625" id="Fill-37" fill="#C41230"></path>
                        <path d="M83.9185355,18.4947321 C83.9185355,17.8170536 84.4607935,17.2670536 85.1309011,17.2670536 L89.0078258,17.2670536 C89.8463419,17.2670536 90.6099118,17.3402679 91.2279978,18.0616964 C91.6044925,18.5063393 91.7094172,19.0697321 91.7094172,19.5045536 C91.7094172,20.0759821 91.5216108,20.7563393 90.9969871,21.1572321 C90.5984495,21.4661607 90.0861699,21.5715179 89.7934387,21.6250893 L92.034772,24.7536607 L89.8560409,24.7536607 L87.8783419,21.7420536 L85.7719118,21.7420536 L85.7719118,24.7536607 L83.9185355,24.7536607 L83.9185355,18.4947321 Z M85.7719118,20.4161607 L88.7247935,20.4161607 C89.1224495,20.4161607 89.8348796,20.3634821 89.8348796,19.5250893 C89.8348796,19.3777679 89.8137183,19.1224107 89.6876323,18.9411607 C89.5518473,18.7616964 89.3737398,18.5822321 88.6401484,18.5822321 L85.7719118,18.5822321 L85.7719118,20.4161607 Z" id="Fill-39" fill="#C41230"></path>
                        <path d="M58.0419806,17.2795536 L58.0419806,18.6402679 L52.5929484,18.6402679 L52.5929484,20.2849107 L58.0419806,20.2849107 L58.0419806,21.645625 L52.5929484,21.645625 L52.5929484,23.3938393 L58.0419806,23.3938393 L58.0419806,24.7536607 L50.9582387,24.7536607 L50.9582387,18.5063393 C50.9582387,17.8277679 51.4996151,17.2795536 52.1679591,17.2795536 L58.0419806,17.2795536 Z" id="Fill-41" fill="#C41230"></path>
                        <path d="M69.9638108,18.4960714 C69.9638108,17.8139286 70.5078323,17.2630357 71.1805849,17.2630357 L71.8224774,17.2630357 L71.8224774,24.7719643 L69.9638108,24.7719643 L69.9638108,18.4960714 Z" id="Fill-43" fill="#C41230"></path>
                        <path d="M67.8147054,17.294375 L67.8147054,24.7515179 L65.9895441,24.7515179 L62.3392215,20.5461607 C61.953028,20.0934821 61.7960817,19.9033036 61.3904903,19.375625 C61.4425118,19.9452679 61.4425118,20.0711607 61.4522108,20.6425893 L61.4522108,24.7515179 L59.7002323,24.7515179 L59.7002323,18.5184821 C59.7002323,17.8416964 60.2407269,17.294375 60.9081892,17.294375 L61.5359742,17.294375 L65.1448559,21.4452679 C65.583071,21.9613393 65.6668344,22.0675893 66.125329,22.6488393 C66.0618452,21.9416964 66.0618452,21.7524107 66.0521462,21.1077679 L66.0521462,18.5184821 C66.0521462,17.8416964 66.5935226,17.294375 67.2601032,17.294375 L67.8147054,17.294375 Z" id="Fill-45" fill="#C41230"></path>
                    </g>
                </g>
            </g>
        </g>
    </g>
</svg>