<?xml version="1.0" encoding="UTF-8" standalone="no"?>
<svg width="159px" height="28px" viewBox="0 0 159 28" version="1.1" xmlns="http://www.w3.org/2000/svg" xmlns:xlink="http://www.w3.org/1999/xlink">
    <!-- Generator: sketchtool 41 (35326) - http://www.bohemiancoding.com/sketch -->
    <title>6B9FC2D8-96B1-4B54-A5CC-668E081DBFCC</title>
    <desc>Created with sketchtool.</desc>
    <defs></defs>
    <g id="Page-1" stroke="none" stroke-width="1" fill="none" fill-rule="evenodd">
        <g id="CP-001-Navigation-03D" transform="translate(-120.000000, -1261.000000)">
            <g id="CP-001-:-navigation-:-selected-:-03D" transform="translate(0.000000, 1241.000000)">
                <g id="top-nav" transform="translate(0.000000, 20.000000)">
                    <g id="hero-dropdown" transform="translate(121.000000, 0.000000)">
                        <g id="logo-:-european-tour">
                            <path d="M88.4013462,17.5590237 C88.4013462,16.552929 89.2220942,15.7410947 90.2370502,15.7410947 L96.1062283,15.7410947 C97.3749233,15.7410947 98.5333393,15.8503057 99.4702218,16.9163215 C100.041135,17.5764201 100.197282,18.4095168 100.197282,19.0512525 C100.197282,19.9017456 99.9123132,20.9078402 99.1208427,21.5041519 C98.5187006,21.959359 97.7418689,22.1149606 97.2968497,22.1922781 L100.689145,26.826499 L97.3924898,26.826499 L94.3954419,22.3681755 L91.2090657,22.3681755 L91.2090657,26.826499 L88.4013462,26.826499 L88.4013462,17.5590237 Z M91.2090657,20.4033432 L95.6787757,20.4033432 C96.2838456,20.4033432 97.3602845,20.3250592 97.3602845,19.0860454 C97.3602845,18.8647239 97.329055,18.4897337 97.1397267,18.2220217 C96.9328319,17.9533432 96.6625022,17.6885306 95.553858,17.6885306 L91.2090657,17.6885306 L91.2090657,20.4033432 Z" id="Fill-1" fill="#0065A6"></path>
                            <path d="M56.2101633,15.7401282 L56.2101633,17.7658481 L52.0546994,17.7658481 L52.0546994,26.8255325 L49.2499076,26.8255325 L49.2499076,17.7658481 L45.0944436,17.7658481 L45.0944436,17.5580572 C45.0944436,16.5558284 45.9181194,15.7401282 46.9311236,15.7401282 L56.2101633,15.7401282 Z" id="Fill-3" fill="#0065A6"></path>
                            <path d="M73.6173414,17.5590237 C73.6173414,16.552929 74.4410172,15.7410947 75.4530454,15.7410947 L76.4074944,15.7410947 L76.4074944,22.146854 C76.4074944,23.301785 76.5158214,23.6738757 76.9725516,24.1261834 C77.5366329,24.6828698 78.4588765,24.9273866 79.6436425,24.9273866 C80.8245047,24.9273866 81.750652,24.6828698 82.3147333,24.1261834 C82.7714635,23.6738757 82.8797905,23.301785 82.8797905,22.146854 L82.8797905,17.5590237 C82.8797905,16.552929 83.6995627,15.7410947 84.7154945,15.7410947 L85.6699435,15.7410947 L85.6699435,22.146854 C85.652377,23.3249803 85.652377,24.440286 84.7008558,25.4753748 C83.5424397,26.748215 81.33979,27.1724951 79.6436425,27.1724951 C77.9474949,27.1724951 75.7419175,26.748215 74.5835014,25.4753748 C73.6319802,24.440286 73.6319802,23.3249803 73.6173414,22.146854 L73.6173414,17.5590237 Z" id="Fill-5" fill="#0065A6"></path>
                            <path d="M64.3524524,25.1804083 C66.471173,25.1804083 68.3244436,23.6649842 68.3244436,21.28457 C68.3244436,18.9012564 66.471173,17.3858323 64.3524524,17.3858323 C62.2337318,17.3858323 60.3804613,18.9012564 60.3804613,21.28457 C60.3804613,23.6649842 62.2337318,25.1804083 64.3524524,25.1804083 M57.4936923,21.28457 C57.4936923,17.4660493 60.3277616,15.3939389 64.3524524,15.3939389 C68.380071,15.3939389 71.2112126,17.4660493 71.2112126,21.28457 C71.2112126,25.1001913 68.380071,27.1713353 64.3524524,27.1713353 C60.3277616,27.1713353 57.4936923,25.1001913 57.4936923,21.28457" id="Fill-7" fill="#0065A6"></path>
                            <path d="M56.2101633,0.673932939 L56.2101633,2.69095464 L47.9460795,2.69095464 L47.9460795,5.13225641 L56.2101633,5.13225641 L56.2101633,7.15217751 L47.9460795,7.15217751 L47.9460795,9.74521499 L56.2101633,9.74521499 L56.2101633,11.7593373 L45.464317,11.7593373 L45.464317,2.49186193 C45.464317,1.48963314 46.2879928,0.673932939 47.3029488,0.673932939 L56.2101633,0.673932939 Z" id="Fill-9" fill="#0065A6"></path>
                            <path d="M127.493449,0.673932939 L127.493449,2.69095464 L119.229365,2.69095464 L119.229365,5.13225641 L127.493449,5.13225641 L127.493449,7.15217751 L119.229365,7.15217751 L119.229365,9.74521499 L127.493449,9.74521499 L127.493449,11.7593373 L116.747603,11.7593373 L116.747603,2.49186193 C116.747603,1.48963314 117.571278,0.673932939 118.583307,0.673932939 L127.493449,0.673932939 Z" id="Fill-11" fill="#0065A6"></path>
                            <path d="M136.422914,4.08151085 C136.343865,3.94040631 136.28043,3.78480473 136.233586,3.64080079 C136.183814,3.50259566 136.152585,3.36149112 136.137946,3.20299014 C136.091102,3.34409467 136.058897,3.47070217 136.026691,3.59441026 C135.963256,3.73551479 135.916412,3.87661933 135.852978,4.01772387 L134.155854,7.70963708 L138.086857,7.70963708 L136.422914,4.08151085 Z M134.647717,0.675672584 L137.676971,0.675672584 L143.083563,11.7610769 L139.944031,11.7610769 L138.99251,9.67157002 L133.251177,9.67157002 L132.299656,11.7610769 L129.238197,11.7610769 L134.647717,0.675672584 Z" id="Fill-13" fill="#0065A6"></path>
                            <path d="M103.459194,2.4928284 C103.459194,1.48963314 104.28287,0.674899408 105.294898,0.674899408 L110.363822,0.674899408 C111.551516,0.674899408 113.087613,0.720323471 113.972771,1.97673373 C114.368019,2.53921893 114.59248,3.3085286 114.59248,4.15515582 C114.59248,5.22213807 114.243101,5.94215779 113.830287,6.42925838 C112.912923,7.52716765 111.566155,7.59095464 110.125698,7.59095464 L106.21519,7.59095464 L106.21519,11.7603037 L103.459194,11.7603037 L103.459194,2.4928284 Z M106.21519,5.64545168 L109.66604,5.64545168 C110.567789,5.64545168 111.804279,5.62805523 111.804279,4.15515582 C111.804279,3.55884418 111.59836,3.18482051 111.327055,2.93353846 C110.949374,2.60203945 110.535584,2.60203945 109.366433,2.60203945 L106.21519,2.60203945 L106.21519,5.64545168 Z" id="Fill-15" fill="#0065A6"></path>
                            <path d="M73.6173414,2.4928284 C73.6173414,1.48963314 74.4410172,0.674899408 75.4530454,0.674899408 L81.3251512,0.674899408 C82.5938462,0.674899408 83.7493345,0.784110454 84.686217,1.85302564 C85.2571297,2.51312426 85.4132768,3.3433215 85.4132768,3.98795661 C85.4132768,4.8355503 85.1283084,5.84164497 84.3368379,6.43795661 C83.7346957,6.89316371 82.9578641,7.04876529 82.5128449,7.12898225 L85.9051401,11.7603037 L82.608485,11.7603037 L79.6114371,7.30198028 L76.4250609,7.30198028 L76.4250609,11.7603037 L73.6173414,11.7603037 L73.6173414,2.4928284 Z M76.4250609,5.34004734 L80.8947709,5.34004734 C81.496913,5.34004734 82.5762797,5.25886391 82.5762797,4.0198501 C82.5762797,3.7985286 82.5450502,3.42353846 82.3557219,3.15582643 C82.148827,2.88714793 81.8784974,2.62233531 80.7698532,2.62233531 L76.4250609,2.62233531 L76.4250609,5.34004734 Z" id="Fill-17" fill="#0065A6"></path>
                            <path d="M58.832751,2.4928284 C58.832751,1.48963314 59.6564268,0.674899408 60.668455,0.674899408 L61.622904,0.674899408 L61.622904,7.08065878 C61.622904,8.23558974 61.7312311,8.60768047 62.1879612,9.05998817 C62.7520425,9.61957396 63.6742862,9.86119132 64.8590521,9.86119132 C66.0399143,9.86119132 66.9660617,9.61957396 67.5301429,9.05998817 C67.9868731,8.60768047 68.0952002,8.23558974 68.0952002,7.08065878 L68.0952002,2.4928284 C68.0952002,1.48963314 68.9149723,0.674899408 69.9309042,0.674899408 L70.8853532,0.674899408 L70.8853532,7.08065878 C70.8677866,8.25878501 70.8677866,9.37409073 69.9162654,10.4120789 C68.7607771,11.6820197 66.5551997,12.1062998 64.8590521,12.1062998 C63.1629045,12.1062998 60.9573271,11.6820197 59.8018388,10.4120789 C58.8473898,9.37409073 58.8473898,8.25878501 58.832751,7.08065878 L58.832751,2.4928284 Z" id="Fill-19" fill="#0065A6"></path>
                            <path d="M94.1383848,10.1150828 C96.2571054,10.1150828 98.110376,8.59965878 98.110376,6.21634517 C98.110376,3.83593097 96.2571054,2.3205069 94.1383848,2.3205069 C92.0196642,2.3205069 90.1663937,3.83593097 90.1663937,6.21634517 C90.1663937,8.59965878 92.0196642,10.1150828 94.1383848,10.1150828 M87.2796247,6.21634517 C87.2796247,2.40072387 90.113694,0.328613412 94.1383848,0.328613412 C98.1630756,0.328613412 100.997145,2.40072387 100.997145,6.21634517 C100.997145,10.0348659 98.1630756,12.1060099 94.1383848,12.1060099 C90.113694,12.1060099 87.2796247,10.0348659 87.2796247,6.21634517" id="Fill-21" fill="#0065A6"></path>
                            <path d="M157.037256,0.673932939 L157.037256,11.7593373 L154.260766,11.7593373 L148.712665,5.50917949 C148.124186,4.83458383 147.886061,4.55237475 147.26928,3.76856805 C147.347354,4.61616174 147.347354,4.8036568 147.36492,5.65028402 L147.36492,11.7593373 L144.699685,11.7593373 L144.699685,2.49186193 C144.699685,1.48963314 145.523361,0.673932939 146.535389,0.673932939 L147.489838,0.673932939 L152.978408,6.84677318 C153.643985,7.61608284 153.769878,7.77168442 154.46766,8.63570809 C154.37202,7.58418935 154.37202,7.30198028 154.357382,6.34227613 L154.357382,2.49186193 C154.357382,1.48963314 155.17813,0.673932939 156.193086,0.673932939 L157.037256,0.673932939 Z" id="Fill-23" fill="#0065A6"></path>
                            <path d="M36.2755716,27.2276529 C37.6125213,27.2276529 38.6938776,26.1645365 38.6938776,24.8501381 L38.6938776,1.07692308 L2.41830591,1.07692308 C1.08430545,1.07692308 0,2.14003945 0,3.45443787 L0,27.2276529 L36.2755716,27.2276529 Z" id="Fill-28" stroke="#0065A6" stroke-width="1.07692308" fill="#0065A6"></path>
                            <path d="M25.9124589,13.2532998 C25.8051078,13.2561992 25.6421293,13.2561992 25.5601521,13.167284 C25.5025729,13.1063964 25.5084284,13.0658047 25.5338023,13.025213 C25.7084918,12.7227081 27.2680107,11.7861992 27.7862238,11.4179744 C27.8506345,11.3744832 27.7950071,11.2478757 27.7774405,11.207284 C27.7364519,11.098073 27.6173898,10.9308738 27.7423074,10.8216627 C27.7774405,10.7897692 27.844779,10.7839704 27.8857676,10.8158639 C27.9257803,10.8496903 27.9667689,10.8815838 28.0077575,10.9163767 C28.1209641,11.019789 28.2019654,11.0922742 28.3542088,11.1299665 C28.5201151,11.1666923 28.6909009,11.1753905 28.8626627,11.1666923 C29.0432077,11.1550947 29.2061863,11.2826686 29.366237,11.3541874 C29.5497098,11.4353708 29.7302549,11.4836943 29.9195832,11.524286 C30.1957683,11.5851736 30.4983033,11.9244043 30.4983033,11.9447002 C30.3382525,12.2249763 30.4983033,12.5526095 30.7256925,12.9189014 C30.8740322,13.1556864 30.8828154,13.3973037 31.0077331,13.6340888 C31.1033732,13.8148185 31.4878853,14.1521164 31.4849576,14.4294931 C31.129723,14.5242071 30.3558191,14.0139112 29.9742347,13.9018008 C29.8083284,13.8554103 29.0988351,13.7867909 28.9270734,13.7085069 C28.8080112,13.6534181 28.0711922,13.2243057 27.5968955,13.2185069 C27.1255265,13.2098087 25.9124589,13.2735957 25.9124589,13.2532998 M28.1853748,24.5551933 C28.1883025,24.5435957 28.1883025,24.5088028 28.1883025,24.4885069 C28.2000136,24.0883886 28.182447,19.7827673 28.182447,19.7827673 C28.182447,19.7827673 30.405591,19.5614458 31.2839182,19.5991381 C31.3073403,19.5991381 31.3854138,19.5962387 31.45568,19.5875404 C31.8509273,19.5469487 33.3353004,19.4377377 34.173615,19.2908343 C34.1941093,19.2879349 34.2370497,19.2676391 34.2809661,19.2415444 C34.391245,19.1777574 34.6947558,19.0279546 35.296898,18.7834379 C36.4260365,18.3794536 37.1062522,18.2238521 36.5509542,16.8727278 C36.5714485,16.8901243 35.8346295,13.6456864 34.8684695,12.835785 C34.8518788,12.8560809 34.4351613,11.9562978 34.2233869,11.7407751 C34.0135642,11.524286 34.1062766,11.0400848 33.4572903,10.5046607 C32.8024485,10.0890789 32.8756425,10.0175602 32.0724609,10.4727673 C32.0724609,10.4727673 31.3219791,9.88418738 31.4088359,9.0520572 C31.4761743,9.00856607 31.5776699,8.94477909 31.6450083,8.8906568 C31.8977714,8.39195858 31.3395456,7.84397041 31.0653123,7.85266864 C30.9755278,7.87876331 30.9521057,7.89615976 30.8769599,7.91935503 C30.8769599,7.90195858 30.4543869,7.57625838 30.2279737,7.57335897 C30.2279737,7.57335897 29.8844501,7.49314201 29.7858823,7.62264892 C29.765388,7.59945365 29.2735247,7.44675148 29.0929796,7.87876331 C29.0929796,7.86136686 28.8773015,8.00827022 28.8773015,8.00827022 C28.8773015,8.00827022 28.6186829,7.81884221 28.5201151,7.9106568 C28.5201151,7.9106568 28.2058691,7.28535108 27.5334607,7.66614004 C27.5334607,7.66614004 26.4628774,8.18706706 26.4043222,8.40935503 C26.3867557,8.4325503 25.8568316,8.141643 25.5279468,8.38036095 C25.5055006,8.3629645 23.8932821,9.50146548 23.8815711,9.52756016 C23.8288714,9.61937475 23.6805317,9.73148521 23.4589981,9.85615976 L23.3252971,9.90448323 C23.3252971,9.90158383 23.3252971,9.89578501 23.3223694,9.8928856 C23.4219131,9.7981716 23.5234087,9.41738264 23.6112415,9.00276726 C23.7995939,8.87036095 24.9404434,8.04306312 25.1444105,6.97994675 C25.3015335,6.14105128 24.57057,5.8211499 23.6453986,5.05473964 C22.7495048,4.31152465 21.6789214,3.58570611 20.3341048,3.72971006 C19.6763352,3.8012288 18.0358151,3.86501578 17.5615183,3.89980868 C15.7072719,4.02931558 14.2004526,5.68294477 16.5192366,7.03793491 C16.5075256,7.04083432 16.5045978,7.04373373 16.5163089,7.04663314 C16.4958146,7.27955227 16.6217081,7.7811499 16.6217081,7.7811499 L16.3533304,8.27694872 C16.3533304,8.27694872 16.4294521,9.99436489 16.7817589,10.7288817 C16.7817589,10.7288817 16.9183876,11.0719783 16.8803267,11.2420769 C16.8334826,11.4547002 17.0403775,11.8702821 17.517602,12.0693748 C16.5280199,12.3892761 15.7131274,12.6453905 15.3588687,12.7661992 C15.3588687,12.7661992 14.9919231,13.0658047 14.3751421,13.2677968 C13.2606424,13.9162978 12.335471,14.8180138 12.3608449,16.8060414 C8.89535582,18.7747396 4.69987917,21.1551538 3.64393459,21.7543649 C2.91882663,22.1631815 2.51186832,22.1225897 1.83945999,23.0252722 C1.40322411,23.6070868 1.12313529,24.5638915 1.36809101,25.2355878 C1.5808414,25.8203018 2.22592399,26.2436154 2.84660861,26.0996114 C4.33878907,25.7478166 3.62051253,23.8322742 3.36384578,22.8957653 C3.29162776,22.6183886 3.52389653,22.3100848 4.02454308,22.0191775 C5.41522795,21.2034773 9.21838508,19.0569487 12.3813392,17.2670473 C12.4779552,18.4577377 12.879058,19.9905582 13.7144448,22.0133787 C13.7203004,22.145785 13.7261559,22.2752919 13.7320114,22.4115641 C13.7320114,22.4115641 13.6617452,23.0368698 13.8510735,23.36257 C13.8744956,23.36257 13.6188048,25.4056864 13.5983105,26.333497 C13.5983105,26.3450947 13.6012382,26.3818205 13.6070937,26.4079152 C13.6324676,26.5780138 13.7378669,27.3908146 13.8042294,27.978428 L28.3366422,27.978428 C28.2107487,27.2004201 28.07412,25.9179152 28.1853748,24.5551933" id="Fill-30" fill="#FFFFFF"></path>
                            <polygon id="Fill-32" fill="#FFFFFF" points="28.883645 24.5378028 29.4711483 24.5378028 29.4711483 26.0648245 29.8351662 26.0648245 29.8351662 24.5378028 30.4197418 24.5378028 30.4197418 24.2121026 28.883645 24.2121026"></polygon>
                            <polygon id="Fill-34" fill="#FFFFFF" points="31.7954951 25.5238915 31.3329094 24.2094931 30.794202 24.2094931 30.794202 26.0660809 31.1582198 26.0660809 31.1582198 24.7806765 31.6208055 26.0660809 31.9321238 26.0660809 32.3947095 24.7806765 32.3947095 26.0660809 32.7587273 26.0660809 32.7587273 24.2094931 32.2492975 24.2094931"></polygon>
                        </g>
                    </g>
                </g>
            </g>
        </g>
    </g>
</svg>