<?xml version="1.0" standalone="no"?>
<!DOCTYPE svg PUBLIC "-//W3C//DTD SVG 20010904//EN"
 "http://www.w3.org/TR/2001/REC-SVG-20010904/DTD/svg10.dtd">
<svg version="1.0" xmlns="http://www.w3.org/2000/svg"
 width="42.000000pt" height="42.000000pt" viewBox="0 0 42.000000 42.000000"
 preserveAspectRatio="xMidYMid meet">
<metadata>
Created by potrace 1.13, written by Peter Selinger 2001-2015
</metadata>
<g transform="translate(0.000000,42.000000) scale(0.100000,-0.100000)"
fill="#000000" stroke="none">
<path d="M47 372 c-10 -10 -17 -23 -17 -28 0 -4 30 -39 67 -76 l67 -68 -69
-70 -70 -70 28 -27 27 -28 70 70 70 69 70 -69 70 -70 27 28 28 27 -70 70 -69
70 69 70 70 70 -28 27 -27 28 -70 -70 -70 -69 -68 67 c-37 37 -72 67 -78 67
-6 0 -18 -8 -27 -18z"/>
</g>
</svg>
