<?xml version="1.0" standalone="no"?>
<!DOCTYPE svg PUBLIC "-//W3C//DTD SVG 20010904//EN"
 "http://www.w3.org/TR/2001/REC-SVG-20010904/DTD/svg10.dtd">
<svg version="1.0" xmlns="http://www.w3.org/2000/svg"
 width="57.000000pt" height="30.000000pt" viewBox="0 0 57.000000 30.000000"
 preserveAspectRatio="xMidYMid meet">
<metadata>
Created by potrace 1.13, written by Peter Selinger 2001-2015
</metadata>
<g transform="translate(0.000000,30.000000) scale(0.100000,-0.100000)"
fill="#000000" stroke="none">
<path d="M44 255 c-9 -14 -15 -27 -13 -28 2 -2 59 -51 126 -110 67 -59 124
-107 128 -107 4 0 61 48 128 107 67 59 124 108 126 110 2 1 -4 14 -13 28 l-17
26 -109 -96 c-59 -52 -111 -95 -115 -95 -4 0 -56 43 -115 95 l-109 96 -17 -26z"/>
</g>
</svg>
