<?xml version="1.0" standalone="no"?>
<!DOCTYPE svg PUBLIC "-//W3C//DTD SVG 20010904//EN"
 "http://www.w3.org/TR/2001/REC-SVG-20010904/DTD/svg10.dtd">
<svg version="1.0" xmlns="http://www.w3.org/2000/svg"
 width="114.000000pt" height="121.000000pt" viewBox="0 0 114.000000 121.000000"
 preserveAspectRatio="xMidYMid meet">
<metadata>
Created by potrace 1.13, written by Peter Selinger 2001-2015
</metadata>
<g transform="translate(0.000000,121.000000) scale(0.100000,-0.100000)"
fill="#000000" stroke="none">
<path d="M378 738 l-3 -443 -50 -2 c-62 -3 -160 -22 -200 -39 -38 -16 -85 -61
-85 -83 0 -67 110 -114 300 -127 225 -15 420 43 420 126 0 61 -121 114 -280
123 l-45 2 -3 207 -2 206 112 60 c62 33 142 75 178 94 36 19 80 43 99 52 28
15 31 20 20 31 -13 12 -444 235 -454 235 -3 0 -6 -199 -7 -442z m209 280 c79
-40 143 -77 143 -83 0 -9 -277 -156 -292 -155 -10 0 -10 310 0 310 4 1 71 -32
149 -72z m-212 -798 c4 -11 15 -20 27 -20 11 0 22 8 25 20 6 24 34 26 132 9
75 -13 153 -46 148 -63 -2 -6 -19 -19 -39 -29 -109 -54 -417 -54 -527 0 -66
33 -39 62 82 88 96 21 144 19 152 -5z"/>
<path d="M943 268 c-83 -92 41 -216 128 -129 37 37 38 79 3 120 -21 26 -33 31
-68 31 -31 0 -48 -6 -63 -22z"/>
</g>
</svg>
