<?xml version="1.0" standalone="no"?>
<!DOCTYPE svg PUBLIC "-//W3C//DTD SVG 20010904//EN"
 "http://www.w3.org/TR/2001/REC-SVG-20010904/DTD/svg10.dtd">
<svg version="1.0" xmlns="http://www.w3.org/2000/svg"
 width="114.000000pt" height="114.000000pt" viewBox="0 0 114.000000 114.000000"
 preserveAspectRatio="xMidYMid meet">
<metadata>
Created by potrace 1.13, written by Peter Selinger 2001-2015
</metadata>
<g transform="translate(0.000000,114.000000) scale(0.100000,-0.100000)"
fill="#000000" stroke="none">
<path d="M443 1125 c-94 -20 -198 -79 -274 -155 -223 -221 -223 -578 0 -801
276 -276 737 -199 910 151 210 428 -168 907 -636 805z m229 -56 c231 -48 408
-264 408 -499 0 -274 -236 -510 -510 -510 -235 0 -451 177 -499 408 -73 353
248 674 601 601z"/>
<path d="M473 779 c-46 -14 -100 -71 -113 -121 -37 -136 92 -258 225 -213 l48
17 58 -58 59 -58 22 22 22 22 -48 49 c-31 32 -54 47 -64 43 -17 -6 -16 -1 13
77 18 49 14 87 -17 141 -37 68 -128 103 -205 79z m133 -93 c28 -28 34 -42 34
-76 0 -34 -6 -48 -34 -76 -28 -28 -42 -34 -76 -34 -34 0 -48 6 -76 34 -27 27
-34 42 -34 73 1 71 42 112 114 113 30 0 45 -7 72 -34z"/>
</g>
</svg>
