<?xml version="1.0" standalone="no"?>
<!DOCTYPE svg PUBLIC "-//W3C//DTD SVG 20010904//EN"
 "http://www.w3.org/TR/2001/REC-SVG-20010904/DTD/svg10.dtd">
<svg version="1.0" xmlns="http://www.w3.org/2000/svg"
 width="54.000000pt" height="30.000000pt" viewBox="0 0 54.000000 30.000000"
 preserveAspectRatio="xMidYMid meet">
<metadata>
Created by potrace 1.13, written by Peter Selinger 2001-2015
</metadata>
<g transform="translate(0.000000,30.000000) scale(0.100000,-0.100000)"
fill="#000000" stroke="none">
<path d="M137 179 c-122 -107 -127 -112 -111 -130 10 -11 21 -19 25 -19 4 0
54 40 111 90 56 50 105 90 108 90 3 0 52 -40 108 -90 57 -50 107 -90 111 -90
4 0 15 8 25 19 16 18 11 23 -111 130 -70 61 -130 111 -133 111 -3 0 -63 -50
-133 -111z"/>
</g>
</svg>
